# xmcd CD database file
#
# Track frame offsets:
#	150
#	10710
#	22979
#	36507
#	49119
#	60087
#	71882
#	85453
#	98336
#	109143
#
# Disc length: 1591 seconds
#
# Revision: 0
# Processed by: cddbd v1.5.2PL0 Copyright (c) Steve Scherf et al.
# Submitted via: CDex 1.51
#
DISCID=7506350a
DTITLE=Johnny Russell - Act Naturally
DYEAR=2003
DGENRE=Country
TTITLE0=Act Naturally
TTITLE1=Rednecks, White Socks and Blue Ribbon Beer
TTITLE2=Catfish John
TTITLE3=Kaw-liga
TTITLE4=Blue Eyes Crying in the Rain
TTITLE5=Working Man Blues
TTITLE6=The baptism of Jesse Taylor
TTITLE7=Good Hearted woman
TTITLE8=Today I started Loving You Again
TTITLE9=Jambalaya (On the Bayou)
EXTD=YEAR: 2003
EXTT0=
EXTT1=
EXTT2=
EXTT3=
EXTT4=
EXTT5=
EXTT6=
EXTT7=
EXTT8=
EXTT9=
PLAYORDER=
